<mxfile host="app.diagrams.net" modified="2025-01-27T10:00:00.000Z" agent="5.0" etag="pqr678" version="24.7.17" type="device">
  <diagram name="User Flow" id="user-flow">
    <mxGraphModel dx="1422" dy="794" grid="1" gridSize="10" guides="1" tooltips="1" connect="1" arrows="1" fold="1" page="1" pageScale="1" pageWidth="1169" pageHeight="827" math="0" shadow="0">
      <root>
        <mxCell id="0" />
        <mxCell id="1" parent="0" />
        
        <!-- Title -->
        <mxCell id="title" value="CertA User Authentication & Certificate Management Flow" style="text;html=1;strokeColor=none;fillColor=none;align=center;verticalAlign=middle;whiteSpace=wrap;rounded=0;fontSize=24;fontStyle=1;" vertex="1" parent="1">
          <mxGeometry x="300" y="20" width="600" height="40" as="geometry" />
        </mxCell>
        
        <!-- User Entry Points -->
        <mxCell id="user-entry" value="User Entry Points" style="rounded=1;whiteSpace=wrap;html=1;fillColor=#dae8fc;strokeColor=#6c8ebf;fontSize=14;fontStyle=1;" vertex="1" parent="1">
          <mxGeometry x="50" y="80" width="200" height="40" as="geometry" />
        </mxCell>
        
        <mxCell id="home-page" value="Home Page (Public)" style="rounded=1;whiteSpace=wrap;html=1;fillColor=#e1d5e7;strokeColor=#9673a6;fontSize=11;align=center;" vertex="1" parent="1">
          <mxGeometry x="70" y="140" width="80" height="50" as="geometry" />
        </mxCell>
        
        <mxCell id="ca-info" value="CA Information (Public)" style="rounded=1;whiteSpace=wrap;html=1;fillColor=#e1d5e7;strokeColor=#9673a6;fontSize=11;align=center;" vertex="1" parent="1">
          <mxGeometry x="170" y="140" width="80" height="50" as="geometry" />
        </mxCell>
        
        <!-- Authentication Flow -->
        <mxCell id="auth-flow" value="Authentication Flow" style="rounded=1;whiteSpace=wrap;html=1;fillColor=#d5e8d4;strokeColor=#82b366;fontSize=14;fontStyle=1;" vertex="1" parent="1">
          <mxGeometry x="300" y="80" width="200" height="40" as="geometry" />
        </mxCell>
        
        <mxCell id="login-page" value="Login Page" style="rounded=1;whiteSpace=wrap;html=1;fillColor=#d5e8d4;strokeColor=#82b366;fontSize=11;align=center;" vertex="1" parent="1">
          <mxGeometry x="320" y="140" width="80" height="40" as="geometry" />
        </mxCell>
        
        <mxCell id="register-page" value="Register Page" style="rounded=1;whiteSpace=wrap;html=1;fillColor=#d5e8d4;strokeColor=#82b366;fontSize=11;align=center;" vertex="1" parent="1">
          <mxGeometry x="420" y="140" width="80" height="40" as="geometry" />
        </mxCell>
        
        <mxCell id="auth-validation" value="Authentication Validation" style="rounded=1;whiteSpace=wrap;html=1;fillColor=#d5e8d4;strokeColor=#82b366;fontSize=11;align=center;" vertex="1" parent="1">
          <mxGeometry x="370" y="200" width="80" height="50" as="geometry" />
        </mxCell>
        
        <!-- Dashboard -->
        <mxCell id="dashboard" value="Dashboard (Authenticated)" style="rounded=1;whiteSpace=wrap;html=1;fillColor=#fff2cc;strokeColor=#d6b656;fontSize=12;align=center;" vertex="1" parent="1">
          <mxGeometry x="370" y="280" width="80" height="50" as="geometry" />
        </mxCell>
        
        <!-- Certificate Management -->
        <mxCell id="cert-management" value="Certificate Management" style="rounded=1;whiteSpace=wrap;html=1;fillColor=#f8cecc;strokeColor=#b85450;fontSize=14;fontStyle=1;" vertex="1" parent="1">
          <mxGeometry x="550" y="80" width="200" height="40" as="geometry" />
        </mxCell>
        
        <mxCell id="cert-list" value="My Certificates" style="rounded=1;whiteSpace=wrap;html=1;fillColor=#f8cecc;strokeColor=#b85450;fontSize=11;align=center;" vertex="1" parent="1">
          <mxGeometry x="570" y="140" width="80" height="40" as="geometry" />
        </mxCell>
        
        <mxCell id="create-cert" value="Create Certificate" style="rounded=1;whiteSpace=wrap;html=1;fillColor=#f8cecc;strokeColor=#b85450;fontSize=11;align=center;" vertex="1" parent="1">
          <mxGeometry x="670" y="140" width="80" height="40" as="geometry" />
        </mxCell>
        
        <mxCell id="cert-details" value="Certificate Details" style="rounded=1;whiteSpace=wrap;html=1;fillColor=#f8cecc;strokeColor=#b85450;fontSize=11;align=center;" vertex="1" parent="1">
          <mxGeometry x="570" y="200" width="80" height="40" as="geometry" />
        </mxCell>
        
        <mxCell id="download-cert" value="Download Certificate" style="rounded=1;whiteSpace=wrap;html=1;fillColor=#f8cecc;strokeColor=#b85450;fontSize=11;align=center;" vertex="1" parent="1">
          <mxGeometry x="670" y="200" width="80" height="40" as="geometry" />
        </mxCell>
        
        <!-- Profile Management -->
        <mxCell id="profile-management" value="Profile Management" style="rounded=1;whiteSpace=wrap;html=1;fillColor=#e1d5e7;strokeColor=#9673a6;fontSize=14;fontStyle=1;" vertex="1" parent="1">
          <mxGeometry x="800" y="80" width="200" height="40" as="geometry" />
        </mxCell>
        
        <mxCell id="view-profile" value="View Profile" style="rounded=1;whiteSpace=wrap;html=1;fillColor=#e1d5e7;strokeColor=#9673a6;fontSize=11;align=center;" vertex="1" parent="1">
          <mxGeometry x="820" y="140" width="80" height="40" as="geometry" />
        </mxCell>
        
        <mxCell id="update-profile" value="Update Profile" style="rounded=1;whiteSpace=wrap;html=1;fillColor=#e1d5e7;strokeColor=#9673a6;fontSize=11;align=center;" vertex="1" parent="1">
          <mxGeometry x="920" y="140" width="80" height="40" as="geometry" />
        </mxCell>
        
        <mxCell id="change-password" value="Change Password" style="rounded=1;whiteSpace=wrap;html=1;fillColor=#e1d5e7;strokeColor=#9673a6;fontSize=11;align=center;" vertex="1" parent="1">
          <mxGeometry x="870" y="200" width="80" height="40" as="geometry" />
        </mxCell>
        
        <!-- Certificate Creation Process -->
        <mxCell id="cert-creation" value="Certificate Creation Process" style="rounded=1;whiteSpace=wrap;html=1;fillColor=#ffe6cc;strokeColor=#d79b00;fontSize=14;fontStyle=1;" vertex="1" parent="1">
          <mxGeometry x="50" y="350" width="200" height="40" as="geometry" />
        </mxCell>
        
        <mxCell id="cert-form" value="Certificate Form• Common Name• Subject Alt Names• Certificate Type" style="rounded=1;whiteSpace=wrap;html=1;fillColor=#ffe6cc;strokeColor=#d79b00;fontSize=10;align=center;" vertex="1" parent="1">
          <mxGeometry x="70" y="410" width="80" height="80" as="geometry" />
        </mxCell>
        
        <mxCell id="validation" value="Validation• Format Check• User Permissions• CA Availability" style="rounded=1;whiteSpace=wrap;html=1;fillColor=#ffe6cc;strokeColor=#d79b00;fontSize=10;align=center;" vertex="1" parent="1">
          <mxGeometry x="170" y="410" width="80" height="80" as="geometry" />
        </mxCell>
        
        <mxCell id="cert-generation" value="Certificate Generation• Key Pair Creation• CSR Generation• CA Signing" style="rounded=1;whiteSpace=wrap;html=1;fillColor=#ffe6cc;strokeColor=#d79b00;fontSize=10;align=center;" vertex="1" parent="1">
          <mxGeometry x="70" y="510" width="80" height="80" as="geometry" />
        </mxCell>
        
        <mxCell id="storage" value="Storage• Database Save• User Association• Audit Log" style="rounded=1;whiteSpace=wrap;html=1;fillColor=#ffe6cc;strokeColor=#d79b00;fontSize=10;align=center;" vertex="1" parent="1">
          <mxGeometry x="170" y="510" width="80" height="80" as="geometry" />
        </mxCell>
        
        <!-- Download Process -->
        <mxCell id="download-process" value="Download Process" style="rounded=1;whiteSpace=wrap;html=1;fillColor=#f5f5f5;strokeColor=#666666;fontSize=14;fontStyle=1;" vertex="1" parent="1">
          <mxGeometry x="300" y="350" width="200" height="40" as="geometry" />
        </mxCell>
        
        <mxCell id="download-options" value="Download Options• Certificate (PEM)• Private Key (PEM)• Public Key (PEM)• PFX/PKCS#12" style="rounded=1;whiteSpace=wrap;html=1;fillColor=#f5f5f5;strokeColor=#666666;fontSize=10;align=center;" vertex="1" parent="1">
          <mxGeometry x="320" y="410" width="80" height="100" as="geometry" />
        </mxCell>
        
        <mxCell id="security-check" value="Security Check• User Ownership• Certificate Access• Download Logging" style="rounded=1;whiteSpace=wrap;html=1;fillColor=#f5f5f5;strokeColor=#666666;fontSize=10;align=center;" vertex="1" parent="1">
          <mxGeometry x="420" y="410" width="80" height="100" as="geometry" />
        </mxCell>
        
        <mxCell id="file-generation" value="File Generation• Format Conversion• Password Protection• Secure Delivery" style="rounded=1;whiteSpace=wrap;html=1;fillColor=#f5f5f5;strokeColor=#666666;fontSize=10;align=center;" vertex="1" parent="1">
          <mxGeometry x="370" y="530" width="80" height="80" as="geometry" />
        </mxCell>
        
        <!-- Security Features -->
        <mxCell id="security-features" value="Security Features" style="rounded=1;whiteSpace=wrap;html=1;fillColor=#f8cecc;strokeColor=#b85450;fontSize=14;fontStyle=1;" vertex="1" parent="1">
          <mxGeometry x="550" y="350" width="200" height="40" as="geometry" />
        </mxCell>
        
        <mxCell id="user-isolation" value="User Isolation• Data Separation• Access Control• Ownership Validation" style="rounded=1;whiteSpace=wrap;html=1;fillColor=#f8cecc;strokeColor=#b85450;fontSize=10;align=center;" vertex="1" parent="1">
          <mxGeometry x="570" y="410" width="80" height="80" as="geometry" />
        </mxCell>
        
        <mxCell id="session-management" value="Session Management• Cookie Security• Timeout Handling• CSRF Protection" style="rounded=1;whiteSpace=wrap;html=1;fillColor=#f8cecc;strokeColor=#b85450;fontSize=10;align=center;" vertex="1" parent="1">
          <mxGeometry x="670" y="410" width="80" height="80" as="geometry" />
        </mxCell>
        
        <mxCell id="audit-logging" value="Audit Logging• Certificate Operations• User Actions• Security Events" style="rounded=1;whiteSpace=wrap;html=1;fillColor=#f8cecc;strokeColor=#b85450;fontSize=10;align=center;" vertex="1" parent="1">
          <mxGeometry x="620" y="510" width="80" height="80" as="geometry" />
        </mxCell>
        
        <!-- Error Handling -->
        <mxCell id="error-handling" value="Error Handling" style="rounded=1;whiteSpace=wrap;html=1;fillColor=#f5f5f5;strokeColor=#666666;fontSize=14;fontStyle=1;" vertex="1" parent="1">
          <mxGeometry x="800" y="350" width="200" height="40" as="geometry" />
        </mxCell>
        
        <mxCell id="validation-errors" value="Validation Errors• Input Validation• Format Errors• Permission Denied" style="rounded=1;whiteSpace=wrap;html=1;fillColor=#f5f5f5;strokeColor=#666666;fontSize=10;align=center;" vertex="1" parent="1">
          <mxGeometry x="820" y="410" width="80" height="80" as="geometry" />
        </mxCell>
        
        <mxCell id="system-errors" value="System Errors• Database Errors• CA Unavailable• Network Issues" style="rounded=1;whiteSpace=wrap;html=1;fillColor=#f5f5f5;strokeColor=#666666;fontSize=10;align=center;" vertex="1" parent="1">
          <mxGeometry x="920" y="410" width="80" height="80" as="geometry" />
        </mxCell>
        
        <mxCell id="error-recovery" value="Error Recovery• User Feedback• Retry Mechanisms• Fallback Options" style="rounded=1;whiteSpace=wrap;html=1;fillColor=#f5f5f5;strokeColor=#666666;fontSize=10;align=center;" vertex="1" parent="1">
          <mxGeometry x="870" y="510" width="80" height="80" as="geometry" />
        </mxCell>
        
        <!-- Flow Connections -->
        <mxCell id="conn1" value="" style="endArrow=classic;html=1;rounded=0;exitX=1;exitY=0.5;exitDx=0;exitDy=0;entryX=0;entryY=0.5;entryDx=0;entryDy=0;strokeWidth=2;strokeColor=#d6b656;" edge="1" parent="1" source="home-page" target="login-page">
          <mxGeometry width="50" height="50" relative="1" as="geometry">
            <mxPoint x="160" y="165" as="sourcePoint" />
            <mxPoint x="210" y="115" as="targetPoint" />
          </mxGeometry>
        </mxCell>
        
        <mxCell id="conn2" value="" style="endArrow=classic;html=1;rounded=0;exitX=1;exitY=0.5;exitDx=0;exitDy=0;entryX=0;entryY=0.5;entryDx=0;entryDy=0;strokeWidth=2;strokeColor=#d6b656;" edge="1" parent="1" source="ca-info" target="register-page">
          <mxGeometry width="50" height="50" relative="1" as="geometry">
            <mxPoint x="260" y="165" as="sourcePoint" />
            <mxPoint x="310" y="115" as="targetPoint" />
          </mxGeometry>
        </mxCell>
        
        <mxCell id="conn3" value="" style="endArrow=classic;html=1;rounded=0;exitX=0.5;exitY=1;exitDx=0;exitDy=0;entryX=0.5;entryY=0;entryDx=0;entryDy=0;strokeWidth=2;strokeColor=#82b366;" edge="1" parent="1" source="login-page" target="auth-validation">
          <mxGeometry width="50" height="50" relative="1" as="geometry">
            <mxPoint x="360" y="190" as="sourcePoint" />
            <mxPoint x="410" y="140" as="targetPoint" />
          </mxGeometry>
        </mxCell>
        
        <mxCell id="conn4" value="" style="endArrow=classic;html=1;rounded=0;exitX=0.5;exitY=1;exitDx=0;exitDy=0;entryX=0.5;entryY=0;entryDx=0;entryDy=0;strokeWidth=2;strokeColor=#82b366;" edge="1" parent="1" source="register-page" target="auth-validation">
          <mxGeometry width="50" height="50" relative="1" as="geometry">
            <mxPoint x="460" y="190" as="sourcePoint" />
            <mxPoint x="410" y="140" as="targetPoint" />
          </mxGeometry>
        </mxCell>
        
        <mxCell id="conn5" value="" style="endArrow=classic;html=1;rounded=0;exitX=0.5;exitY=1;exitDx=0;exitDy=0;entryX=0.5;entryY=0;entryDx=0;entryDy=0;strokeWidth=2;strokeColor=#d6b656;" edge="1" parent="1" source="auth-validation" target="dashboard">
          <mxGeometry width="50" height="50" relative="1" as="geometry">
            <mxPoint x="410" y="260" as="sourcePoint" />
            <mxPoint x="410" y="210" as="targetPoint" />
          </mxGeometry>
        </mxCell>
        
        <mxCell id="conn6" value="" style="endArrow=classic;html=1;rounded=0;exitX=1;exitY=0.5;exitDx=0;exitDy=0;entryX=0;entryY=0.5;entryDx=0;entryDy=0;strokeWidth=2;strokeColor=#d6b656;" edge="1" parent="1" source="dashboard" target="cert-list">
          <mxGeometry width="50" height="50" relative="1" as="geometry">
            <mxPoint x="460" y="305" as="sourcePoint" />
            <mxPoint x="510" y="255" as="targetPoint" />
          </mxGeometry>
        </mxCell>
        
        <mxCell id="conn7" value="" style="endArrow=classic;html=1;rounded=0;exitX=1;exitY=0.5;exitDx=0;exitDy=0;entryX=0;entryY=0.5;entryDx=0;entryDy=0;strokeWidth=2;strokeColor=#d6b656;" edge="1" parent="1" source="dashboard" target="view-profile">
          <mxGeometry width="50" height="50" relative="1" as="geometry">
            <mxPoint x="460" y="305" as="sourcePoint" />
            <mxPoint x="510" y="255" as="targetPoint" />
          </mxGeometry>
        </mxCell>
        
        <mxCell id="conn8" value="" style="endArrow=classic;html=1;rounded=0;exitX=0.5;exitY=1;exitDx=0;exitDy=0;entryX=0.5;entryY=0;entryDx=0;entryDy=0;strokeWidth=2;strokeColor=#b85450;" edge="1" parent="1" source="create-cert" target="cert-form">
          <mxGeometry width="50" height="50" relative="1" as="geometry">
            <mxPoint x="710" y="190" as="sourcePoint" />
            <mxPoint x="110" y="140" as="targetPoint" />
          </mxGeometry>
        </mxCell>
        
        <mxCell id="conn9" value="" style="endArrow=classic;html=1;rounded=0;exitX=0.5;exitY=1;exitDx=0;exitDy=0;entryX=0.5;entryY=0;entryDx=0;entryDy=0;strokeWidth=2;strokeColor=#b85450;" edge="1" parent="1" source="download-cert" target="download-options">
          <mxGeometry width="50" height="50" relative="1" as="geometry">
            <mxPoint x="710" y="250" as="sourcePoint" />
            <mxPoint x="360" y="200" as="targetPoint" />
          </mxGeometry>
        </mxCell>
        
        <!-- Legend -->
        <mxCell id="legend" value="Flow Types" style="text;html=1;strokeColor=none;fillColor=none;align=left;verticalAlign=top;whiteSpace=wrap;rounded=0;fontSize=14;fontStyle=1;" vertex="1" parent="1">
          <mxGeometry x="50" y="650" width="100" height="30" as="geometry" />
        </mxCell>
        
        <mxCell id="legend1" value="Public Access" style="rounded=1;whiteSpace=wrap;html=1;fillColor=#dae8fc;strokeColor=#6c8ebf;fontSize=10;" vertex="1" parent="1">
          <mxGeometry x="50" y="680" width="80" height="20" as="geometry" />
        </mxCell>
        
        <mxCell id="legend2" value="Authentication" style="rounded=1;whiteSpace=wrap;html=1;fillColor=#d5e8d4;strokeColor=#82b366;fontSize=10;" vertex="1" parent="1">
          <mxGeometry x="140" y="680" width="80" height="20" as="geometry" />
        </mxCell>
        
        <mxCell id="legend3" value="Dashboard" style="rounded=1;whiteSpace=wrap;html=1;fillColor=#fff2cc;strokeColor=#d6b656;fontSize=10;" vertex="1" parent="1">
          <mxGeometry x="230" y="680" width="80" height="20" as="geometry" />
        </mxCell>
        
        <mxCell id="legend4" value="Certificate Mgmt" style="rounded=1;whiteSpace=wrap;html=1;fillColor=#f8cecc;strokeColor=#b85450;fontSize=10;" vertex="1" parent="1">
          <mxGeometry x="320" y="680" width="80" height="20" as="geometry" />
        </mxCell>
        
        <mxCell id="legend5" value="Profile Mgmt" style="rounded=1;whiteSpace=wrap;html=1;fillColor=#e1d5e7;strokeColor=#9673a6;fontSize=10;" vertex="1" parent="1">
          <mxGeometry x="410" y="680" width="80" height="20" as="geometry" />
        </mxCell>
        
        <mxCell id="legend6" value="Processes" style="rounded=1;whiteSpace=wrap;html=1;fillColor=#ffe6cc;strokeColor=#d79b00;fontSize=10;" vertex="1" parent="1">
          <mxGeometry x="500" y="680" width="80" height="20" as="geometry" />
        </mxCell>
        
        <mxCell id="legend7" value="Security" style="rounded=1;whiteSpace=wrap;html=1;fillColor=#f8cecc;strokeColor=#b85450;fontSize=10;" vertex="1" parent="1">
          <mxGeometry x="590" y="680" width="80" height="20" as="geometry" />
        </mxCell>
        
        <mxCell id="legend8" value="Error Handling" style="rounded=1;whiteSpace=wrap;html=1;fillColor=#f5f5f5;strokeColor=#666666;fontSize=10;" vertex="1" parent="1">
          <mxGeometry x="680" y="680" width="80" height="20" as="geometry" />
        </mxCell>
        
      </root>
    </mxGraphModel>
  </diagram>
</mxfile>
